<?xml version="1.0" encoding="UTF-8"?>
<svg id="Camada_2" data-name="Camada 2" xmlns="http://www.w3.org/2000/svg" viewBox="0 0 76.49 62.51">
  <defs>
    <style>
      .cls-1 {
        fill: #fff;
      }

      .cls-2 {
        fill: #e11235;
      }
    </style>
  </defs>
  <g id="Camada_1-2" data-name="Camada 1">
    <path class="cls-1" d="M32.15,62.51c-.32,0-.63-.02-.94-.05h-.13l-1.24-.24-.24-.1h-.68l-1.65-1.23-.12-.09-.03-.03-.16-.12-.18-.18c-.14-.12-.27-.25-.41-.38-.14-.13-.32-.34-.47-.52-.07-.08-.27-.32-.27-.32L1.44,26.52l-.14-.23-.15-.21-.18-.35c-.22-.41-.4-.84-.56-1.31l-.34-.86v-.69c-.04-.34-.07-.69-.07-1.04v-.34c.02-.29.04-.58.08-.85v-.32l.25-.85c.15-.49.34-.96.58-1.44l.32-.8.59-.6c.09-.11.18-.21.27-.32l.12-.15L16.61,2.31c1.55-1.49,3.58-2.31,5.71-2.31,1.89,0,3.73.66,5.18,1.84.56-.12,1.15-.18,1.74-.18.64,0,1.29.08,1.91.23l32.65,7.84c2.74.66,4.92,2.65,5.84,5.31l6.39,18.46c.98,2.86.34,6.01-1.65,8.24-1.54,1.74-3.79,2.76-6.15,2.76-.65,0-1.29-.08-1.92-.23h0c-.75,1.72-2.09,3.2-3.89,4.1l-26.89,13.44-.26.1-.12.05-.14.05-.09.04-.2.07c-.65.21-1.28.33-1.91.38l-.24.02s-.36,0-.43,0Z"/>
    <path class="cls-2" d="M6.06,22.38s.01.03.01.04c.05.17.11.33.2.49.01.03.03.05.04.07.04.06.07.11.1.17l23.96,32.44s.06.07.09.1c.04.04.08.1.13.14.07.07.13.13.21.18.03.02.05.05.08.07,0,0,.02,0,.03.01.07.05.16.1.24.13.04.02.07.04.12.07.09.04.18.07.27.1.04,0,.07.03.1.04h.01c.19.04.39.06.58.05h.1c.18-.01.37-.06.55-.12.04-.01.07-.03.12-.04.05-.02.1-.04.15-.06l26.61-13.3c1.12-.55,1.58-1.92,1.03-3.04-.54-1.12-1.88-1.59-2.99-1.03l-18.8,9.4,9.94-14.39,18.79,4.5c.8.19,1.64-.07,2.19-.69.55-.62.72-1.5.46-2.28l-6.39-18.45c-.25-.72-.84-1.26-1.57-1.44h0L29.76,7.72c-1.2-.29-2.41.47-2.7,1.69-.3,1.22.44,2.44,1.64,2.73h0l14.45,3.46,4.07,13.22-11.29-2.71c-1.2-.29-2.41.47-2.7,1.69-.3,1.22.44,2.44,1.64,2.73h0l9.41,2.26-12.14,17.58-.57-.78-2.98-22.25c.1-.18.19-.38.24-.6.3-1.22-.44-2.44-1.64-2.73h0l-2.14-.52h0l-5.41-1.3-6.85-1.65,11.06-10.65c.9-.86.95-2.3.1-3.21s-2.27-.94-3.17-.07l-14.07,13.54s-.02.03-.03.04c-.11.11-.21.23-.3.36-.01.01-.01.04-.03.05-.01.02-.03.05-.04.07-.09.16-.16.32-.21.49h0c-.05.18-.07.37-.08.55v.08c0,.18.02.35.07.53v.04-.02Z"/>
  </g>
</svg>